STARTFONT 2.1
COMMENT AUTOMATICALLY GENERATED FILE. DO NOT EDIT!
COMMENT Generated with 'ucs2any.pl luBS14.bdf ../../../fonts/util/map-ISO8859-1 ISO8859-1'
COMMENT from an ISO10646-1 encoded source BDF font.
COMMENT ucs2any.pl by Markus Kuhn <mkuhn@acm.org>, 2000.
COMMENT $Xorg: $
COMMENT ISO10646-1 extension by Markus Kuhn <mkuhn@acm.org>, 2001-03-20
COMMENT  (c) Copyright Bigelow & Holmes 1986, 1985. Lucida is a registered
COMMENT  trademark of Bigelow & Holmes. See LEGAL NOTICE file for terms 
COMMENT  of the license. 
COMMENT GRID 0014 0014 0200 0200
FONT -B&H-Lucida-Bold-R-Normal-Sans-14-140-75-75-P-92-ISO8859-1
SIZE 14 72 72
FONTBOUNDINGBOX 14 15 0 -2
STARTPROPERTIES 22
COMMENT Begin LogicalFontDescription
FONTNAME_REGISTRY ""
FOUNDRY "B&H"
FAMILY_NAME "Lucida"
WEIGHT_NAME "Bold"
SLANT "R"
SETWIDTH_NAME "Normal"
ADD_STYLE_NAME "Sans"
PIXEL_SIZE 14
POINT_SIZE 140
RESOLUTION_X 75
RESOLUTION_Y 75
SPACING "P"
AVERAGE_WIDTH 92
CHARSET_REGISTRY "ISO8859"
CHARSET_ENCODING "1"
COMMENT END LogicalFontDescription
FONT_ASCENT 13
FONT_DESCENT 2
DEFAULT_CHAR 0
COPYRIGHT "Copyright Bigelow & Holmes 1986, 1985."
FACE_NAME "Lucida Sans Bold"
X_HEIGHT 8
CAP_HEIGHT 10
ENDPROPERTIES
CHARS 192
STARTCHAR defaultchar
ENCODING 0
SWIDTH 813 0
DWIDTH 12 0
BBX 7 9 2 0
BITMAP
AA
00
82
00
82
00
82
00
AA
ENDCHAR
STARTCHAR space
ENCODING 32
SWIDTH 343 0
DWIDTH 4 0
BBX 1 1 0 0
BITMAP
00
ENDCHAR
STARTCHAR exclam
ENCODING 33
SWIDTH 265 0
DWIDTH 4 0
BBX 2 10 1 0
BITMAP
C0
C0
C0
C0
C0
80
80
00
C0
C0
ENDCHAR
STARTCHAR quotedbl
ENCODING 34
SWIDTH 530 0
DWIDTH 7 0
BBX 5 4 1 7
BITMAP
D8
D8
90
90
ENDCHAR
STARTCHAR numbersign
ENCODING 35
SWIDTH 687 0
DWIDTH 10 0
BBX 9 10 0 0
BITMAP
1B00
1B00
1B00
7F80
3600
3600
FF80
6C00
6C00
6C00
ENDCHAR
STARTCHAR dollar
ENCODING 36
SWIDTH 687 0
DWIDTH 10 0
BBX 7 12 1 -1
BITMAP
10
7C
D6
D0
F0
70
1C
1E
16
D6
7C
10
ENDCHAR
STARTCHAR percent
ENCODING 37
SWIDTH 898 0
DWIDTH 12 0
BBX 10 10 1 0
BITMAP
7000
D980
DB00
7200
0400
0800
1380
36C0
66C0
0380
ENDCHAR
STARTCHAR ampersand
ENCODING 38
SWIDTH 792 0
DWIDTH 11 0
BBX 9 10 1 0
BITMAP
3C00
6600
6600
6400
3980
5980
CD00
C600
E700
7980
ENDCHAR
STARTCHAR quotesingle
ENCODING 39
SWIDTH 265 0
DWIDTH 4 0
BBX 2 4 1 7
BITMAP
C0
C0
80
80
ENDCHAR
STARTCHAR parenleft
ENCODING 40
SWIDTH 386 0
DWIDTH 6 0
BBX 4 12 1 -1
BITMAP
30
60
60
C0
C0
C0
C0
C0
C0
60
60
30
ENDCHAR
STARTCHAR parenright
ENCODING 41
SWIDTH 386 0
DWIDTH 6 0
BBX 4 12 1 -1
BITMAP
C0
60
60
30
30
30
30
30
30
60
60
C0
ENDCHAR
STARTCHAR asterisk
ENCODING 42
SWIDTH 464 0
DWIDTH 7 0
BBX 5 5 1 5
BITMAP
20
A8
70
A8
20
ENDCHAR
STARTCHAR plus
ENCODING 43
SWIDTH 687 0
DWIDTH 10 0
BBX 7 7 1 1
BITMAP
10
10
10
FE
10
10
10
ENDCHAR
STARTCHAR comma
ENCODING 44
SWIDTH 343 0
DWIDTH 4 0
BBX 2 4 1 -2
BITMAP
C0
C0
40
80
ENDCHAR
STARTCHAR hyphen
ENCODING 45
SWIDTH 289 0
DWIDTH 5 0
BBX 3 1 1 4
BITMAP
E0
ENDCHAR
STARTCHAR period
ENCODING 46
SWIDTH 343 0
DWIDTH 4 0
BBX 2 2 1 0
BITMAP
C0
C0
ENDCHAR
STARTCHAR slash
ENCODING 47
SWIDTH 596 0
DWIDTH 8 0
BBX 8 12 0 -1
BITMAP
03
06
06
0C
0C
18
18
30
30
60
60
C0
ENDCHAR
STARTCHAR zero
ENCODING 48
SWIDTH 687 0
DWIDTH 10 0
BBX 8 10 1 0
BITMAP
3C
66
C3
C3
C3
C3
C3
C3
66
3C
ENDCHAR
STARTCHAR one
ENCODING 49
SWIDTH 687 0
DWIDTH 10 0
BBX 5 10 2 0
BITMAP
18
F8
18
18
18
18
18
18
18
18
ENDCHAR
STARTCHAR two
ENCODING 50
SWIDTH 687 0
DWIDTH 10 0
BBX 8 10 1 0
BITMAP
7E
C7
03
03
06
0C
18
60
FF
FF
ENDCHAR
STARTCHAR three
ENCODING 51
SWIDTH 687 0
DWIDTH 10 0
BBX 8 10 1 0
BITMAP
7E
C7
03
06
3C
06
03
03
C7
7E
ENDCHAR
STARTCHAR four
ENCODING 52
SWIDTH 687 0
DWIDTH 10 0
BBX 8 10 1 0
BITMAP
0C
1C
2C
4C
8C
FF
FF
0C
0C
0C
ENDCHAR
STARTCHAR five
ENCODING 53
SWIDTH 687 0
DWIDTH 10 0
BBX 7 10 2 0
BITMAP
FC
FC
80
80
FC
0E
06
06
CC
78
ENDCHAR
STARTCHAR six
ENCODING 54
SWIDTH 687 0
DWIDTH 10 0
BBX 8 10 1 0
BITMAP
3E
63
C0
DC
E6
C3
C3
C3
66
3C
ENDCHAR
STARTCHAR seven
ENCODING 55
SWIDTH 687 0
DWIDTH 10 0
BBX 8 10 1 0
BITMAP
FF
FF
06
0C
18
30
30
60
60
60
ENDCHAR
STARTCHAR eight
ENCODING 56
SWIDTH 687 0
DWIDTH 10 0
BBX 8 10 1 0
BITMAP
7E
C7
C3
72
3C
4E
C7
C3
E3
7E
ENDCHAR
STARTCHAR nine
ENCODING 57
SWIDTH 687 0
DWIDTH 10 0
BBX 8 10 1 0
BITMAP
3C
66
C3
C3
C3
67
1B
03
C6
7C
ENDCHAR
STARTCHAR colon
ENCODING 58
SWIDTH 343 0
DWIDTH 4 0
BBX 2 7 1 0
BITMAP
C0
C0
00
00
00
C0
C0
ENDCHAR
STARTCHAR semicolon
ENCODING 59
SWIDTH 343 0
DWIDTH 4 0
BBX 2 9 1 -2
BITMAP
C0
C0
00
00
00
C0
C0
40
80
ENDCHAR
STARTCHAR less
ENCODING 60
SWIDTH 687 0
DWIDTH 10 0
BBX 6 7 2 1
BITMAP
0C
38
60
C0
60
38
0C
ENDCHAR
STARTCHAR equal
ENCODING 61
SWIDTH 687 0
DWIDTH 10 0
BBX 7 3 1 3
BITMAP
FE
00
FE
ENDCHAR
STARTCHAR greater
ENCODING 62
SWIDTH 687 0
DWIDTH 10 0
BBX 6 7 2 1
BITMAP
C0
70
18
0C
18
70
C0
ENDCHAR
STARTCHAR question
ENCODING 63
SWIDTH 572 0
DWIDTH 8 0
BBX 6 10 1 0
BITMAP
78
CC
0C
0C
18
30
30
00
30
30
ENDCHAR
STARTCHAR at
ENCODING 64
SWIDTH 833 0
DWIDTH 12 0
BBX 10 10 1 0
BITMAP
1E00
6100
4180
8F80
9980
9980
9980
4EC0
6000
1F00
ENDCHAR
STARTCHAR A
ENCODING 65
SWIDTH 773 0
DWIDTH 11 0
BBX 9 10 1 0
BITMAP
1C00
1C00
2600
2600
6300
4300
FF00
C180
C180
C180
ENDCHAR
STARTCHAR B
ENCODING 66
SWIDTH 669 0
DWIDTH 10 0
BBX 7 10 2 0
BITMAP
FC
C6
C6
CC
F0
CC
C6
C6
C6
FC
ENDCHAR
STARTCHAR C
ENCODING 67
SWIDTH 726 0
DWIDTH 11 0
BBX 8 10 2 0
BITMAP
3E
63
C0
C0
C0
C0
C0
C0
63
3E
ENDCHAR
STARTCHAR D
ENCODING 68
SWIDTH 819 0
DWIDTH 12 0
BBX 9 10 2 0
BITMAP
FE00
C300
C180
C180
C180
C180
C180
C180
C300
FE00
ENDCHAR
STARTCHAR E
ENCODING 69
SWIDTH 645 0
DWIDTH 9 0
BBX 6 10 2 0
BITMAP
FC
C0
C0
C0
F8
C0
C0
C0
C0
FC
ENDCHAR
STARTCHAR F
ENCODING 70
SWIDTH 602 0
DWIDTH 9 0
BBX 6 10 2 0
BITMAP
FC
C0
C0
C0
F8
C0
C0
C0
C0
C0
ENDCHAR
STARTCHAR G
ENCODING 71
SWIDTH 759 0
DWIDTH 11 0
BBX 8 10 2 0
BITMAP
3E
63
C0
C0
C0
C3
C3
C3
63
3F
ENDCHAR
STARTCHAR H
ENCODING 72
SWIDTH 813 0
DWIDTH 12 0
BBX 8 10 2 0
BITMAP
C3
C3
C3
C3
FF
C3
C3
C3
C3
C3
ENDCHAR
STARTCHAR I
ENCODING 73
SWIDTH 361 0
DWIDTH 6 0
BBX 2 10 2 0
BITMAP
C0
C0
C0
C0
C0
C0
C0
C0
C0
C0
ENDCHAR
STARTCHAR J
ENCODING 74
SWIDTH 501 0
DWIDTH 6 0
BBX 4 12 0 -2
BITMAP
30
30
30
30
30
30
30
30
30
30
30
E0
ENDCHAR
STARTCHAR K
ENCODING 75
SWIDTH 753 0
DWIDTH 11 0
BBX 8 10 2 0
BITMAP
C3
C6
CC
D8
F0
D8
CC
C6
C3
C3
ENDCHAR
STARTCHAR L
ENCODING 76
SWIDTH 620 0
DWIDTH 9 0
BBX 6 10 2 0
BITMAP
C0
C0
C0
C0
C0
C0
C0
C0
C0
FC
ENDCHAR
STARTCHAR M
ENCODING 77
SWIDTH 940 0
DWIDTH 15 0
BBX 11 10 2 0
BITMAP
E0E0
E0E0
B160
B160
B160
9A60
9A60
8C60
8C60
8060
ENDCHAR
STARTCHAR N
ENCODING 78
SWIDTH 783 0
DWIDTH 12 0
BBX 8 10 2 0
BITMAP
E1
E1
B1
B1
99
99
8D
8D
87
87
ENDCHAR
STARTCHAR O
ENCODING 79
SWIDTH 855 0
DWIDTH 12 0
BBX 10 10 1 0
BITMAP
3F00
6180
C0C0
C0C0
C0C0
C0C0
C0C0
C0C0
6180
3F00
ENDCHAR
STARTCHAR P
ENCODING 80
SWIDTH 657 0
DWIDTH 9 0
BBX 6 10 2 0
BITMAP
F8
CC
CC
CC
CC
F8
C0
C0
C0
C0
ENDCHAR
STARTCHAR Q
ENCODING 81
SWIDTH 855 0
DWIDTH 12 0
BBX 10 12 1 -2
BITMAP
3F00
6180
C0C0
C0C0
C0C0
C0C0
C0C0
C0C0
6180
3F00
0300
0180
ENDCHAR
STARTCHAR R
ENCODING 82
SWIDTH 734 0
DWIDTH 11 0
BBX 8 10 2 0
BITMAP
FC
C6
C6
C4
CC
F8
CC
C6
C3
C3
ENDCHAR
STARTCHAR S
ENCODING 83
SWIDTH 594 0
DWIDTH 9 0
BBX 7 10 1 0
BITMAP
7C
C6
C0
E0
78
3C
0E
06
C6
7C
ENDCHAR
STARTCHAR T
ENCODING 84
SWIDTH 735 0
DWIDTH 10 0
BBX 8 10 1 0
BITMAP
FF
18
18
18
18
18
18
18
18
18
ENDCHAR
STARTCHAR U
ENCODING 85
SWIDTH 783 0
DWIDTH 12 0
BBX 8 10 2 0
BITMAP
C3
C3
C3
C3
C3
C3
C3
C3
66
3C
ENDCHAR
STARTCHAR V
ENCODING 86
SWIDTH 735 0
DWIDTH 11 0
BBX 9 10 1 0
BITMAP
C180
C180
C180
6100
6300
6300
3200
3600
1C00
1C00
ENDCHAR
STARTCHAR W
ENCODING 87
SWIDTH 940 0
DWIDTH 13 0
BBX 11 10 1 0
BITMAP
C060
C060
C660
C660
6640
6B40
6B40
7BC0
3180
3180
ENDCHAR
STARTCHAR X
ENCODING 88
SWIDTH 699 0
DWIDTH 9 0
BBX 7 10 1 0
BITMAP
C6
C6
6C
6C
38
38
6C
6C
C6
C6
ENDCHAR
STARTCHAR Y
ENCODING 89
SWIDTH 738 0
DWIDTH 10 0
BBX 8 10 1 0
BITMAP
C3
C3
62
66
34
18
18
18
18
18
ENDCHAR
STARTCHAR Z
ENCODING 90
SWIDTH 675 0
DWIDTH 9 0
BBX 7 10 1 0
BITMAP
FE
06
0C
1C
18
30
70
60
C0
FE
ENDCHAR
STARTCHAR bracketleft
ENCODING 91
SWIDTH 386 0
DWIDTH 6 0
BBX 4 12 1 -1
BITMAP
F0
C0
C0
C0
C0
C0
C0
C0
C0
C0
C0
F0
ENDCHAR
STARTCHAR backslash
ENCODING 92
SWIDTH 596 0
DWIDTH 8 0
BBX 8 12 0 -1
BITMAP
C0
60
60
30
30
18
18
0C
0C
06
06
03
ENDCHAR
STARTCHAR bracketright
ENCODING 93
SWIDTH 386 0
DWIDTH 6 0
BBX 4 12 1 -1
BITMAP
F0
30
30
30
30
30
30
30
30
30
30
F0
ENDCHAR
STARTCHAR asciicircum
ENCODING 94
SWIDTH 687 0
DWIDTH 10 0
BBX 6 7 2 3
BITMAP
30
30
78
48
CC
84
84
ENDCHAR
STARTCHAR underscore
ENCODING 95
SWIDTH 500 0
DWIDTH 11 0
BBX 9 1 1 -1
BITMAP
FF80
ENDCHAR
STARTCHAR grave
ENCODING 96
SWIDTH 675 0
DWIDTH 10 0
BBX 5 2 2 9
BITMAP
E0
38
ENDCHAR
STARTCHAR a
ENCODING 97
SWIDTH 623 0
DWIDTH 9 0
BBX 8 8 1 0
BITMAP
7C
06
06
7E
C6
C6
CE
77
ENDCHAR
STARTCHAR b
ENCODING 98
SWIDTH 696 0
DWIDTH 10 0
BBX 8 11 1 0
BITMAP
C0
C0
C0
DC
E6
C3
C3
C3
C3
C6
FC
ENDCHAR
STARTCHAR c
ENCODING 99
SWIDTH 545 0
DWIDTH 9 0
BBX 7 8 1 0
BITMAP
3C
66
C0
C0
C0
C0
62
3C
ENDCHAR
STARTCHAR d
ENCODING 100
SWIDTH 696 0
DWIDTH 10 0
BBX 8 11 1 0
BITMAP
03
03
03
3F
63
C3
C3
C3
C3
67
3B
ENDCHAR
STARTCHAR e
ENCODING 101
SWIDTH 614 0
DWIDTH 9 0
BBX 7 8 1 0
BITMAP
3C
66
C6
FE
C0
C0
62
3C
ENDCHAR
STARTCHAR f
ENCODING 102
SWIDTH 461 0
DWIDTH 7 0
BBX 7 11 0 0
BITMAP
1E
30
30
FE
30
30
30
30
30
30
30
ENDCHAR
STARTCHAR g
ENCODING 103
SWIDTH 696 0
DWIDTH 10 0
BBX 8 10 1 -2
BITMAP
3F
63
C3
C3
C3
67
3B
03
C6
7C
ENDCHAR
STARTCHAR h
ENCODING 104
SWIDTH 693 0
DWIDTH 10 0
BBX 8 11 1 0
BITMAP
C0
C0
C0
DE
E7
C3
C3
C3
C3
C3
C3
ENDCHAR
STARTCHAR i
ENCODING 105
SWIDTH 361 0
DWIDTH 4 0
BBX 2 11 1 0
BITMAP
C0
C0
00
C0
C0
C0
C0
C0
C0
C0
C0
ENDCHAR
STARTCHAR j
ENCODING 106
SWIDTH 361 0
DWIDTH 5 0
BBX 4 13 0 -2
BITMAP
30
30
00
30
30
30
30
30
30
30
30
30
E0
ENDCHAR
STARTCHAR k
ENCODING 107
SWIDTH 681 0
DWIDTH 9 0
BBX 8 11 1 0
BITMAP
C0
C0
C0
C6
CC
D8
F0
D8
CC
C6
C7
ENDCHAR
STARTCHAR l
ENCODING 108
SWIDTH 361 0
DWIDTH 4 0
BBX 2 11 1 0
BITMAP
C0
C0
C0
C0
C0
C0
C0
C0
C0
C0
C0
ENDCHAR
STARTCHAR m
ENCODING 109
SWIDTH 1006 0
DWIDTH 14 0
BBX 12 8 1 0
BITMAP
DDE0
EF70
C630
C630
C630
C630
C630
C630
ENDCHAR
STARTCHAR n
ENCODING 110
SWIDTH 693 0
DWIDTH 10 0
BBX 8 8 1 0
BITMAP
DE
E7
C3
C3
C3
C3
C3
C3
ENDCHAR
STARTCHAR o
ENCODING 111
SWIDTH 675 0
DWIDTH 10 0
BBX 8 8 1 0
BITMAP
3C
66
C3
C3
C3
C3
66
3C
ENDCHAR
STARTCHAR p
ENCODING 112
SWIDTH 696 0
DWIDTH 10 0
BBX 8 10 1 -2
BITMAP
DC
E6
C3
C3
C3
C3
C6
FC
C0
C0
ENDCHAR
STARTCHAR q
ENCODING 113
SWIDTH 696 0
DWIDTH 10 0
BBX 8 10 1 -2
BITMAP
3F
63
C3
C3
C3
C3
67
3B
03
03
ENDCHAR
STARTCHAR r
ENCODING 114
SWIDTH 500 0
DWIDTH 8 0
BBX 5 8 2 0
BITMAP
D8
D8
E0
C0
C0
C0
C0
C0
ENDCHAR
STARTCHAR s
ENCODING 115
SWIDTH 622 0
DWIDTH 8 0
BBX 6 8 1 0
BITMAP
7C
C0
C0
F0
3C
0C
0C
F8
ENDCHAR
STARTCHAR t
ENCODING 116
SWIDTH 436 0
DWIDTH 7 0
BBX 5 10 1 0
BITMAP
60
60
F8
60
60
60
60
60
60
38
ENDCHAR
STARTCHAR u
ENCODING 117
SWIDTH 693 0
DWIDTH 10 0
BBX 8 8 1 0
BITMAP
C3
C3
C3
C3
C3
C3
E7
7B
ENDCHAR
STARTCHAR v
ENCODING 118
SWIDTH 663 0
DWIDTH 9 0
BBX 7 8 1 0
BITMAP
C6
C6
C6
C6
64
68
38
38
ENDCHAR
STARTCHAR w
ENCODING 119
SWIDTH 885 0
DWIDTH 13 0
BBX 11 8 1 0
BITMAP
C060
C460
C460
6EC0
6AC0
7B80
3180
3180
ENDCHAR
STARTCHAR x
ENCODING 120
SWIDTH 568 0
DWIDTH 9 0
BBX 7 8 1 0
BITMAP
C6
C6
64
38
38
4C
C6
C6
ENDCHAR
STARTCHAR y
ENCODING 121
SWIDTH 645 0
DWIDTH 9 0
BBX 7 10 1 -2
BITMAP
C6
C6
C6
C6
6C
68
38
30
60
E0
ENDCHAR
STARTCHAR z
ENCODING 122
SWIDTH 608 0
DWIDTH 9 0
BBX 7 8 1 0
BITMAP
FE
06
0C
18
30
60
C0
FE
ENDCHAR
STARTCHAR braceleft
ENCODING 123
SWIDTH 386 0
DWIDTH 6 0
BBX 4 12 1 -1
BITMAP
70
C0
C0
60
20
C0
20
60
C0
C0
C0
70
ENDCHAR
STARTCHAR bar
ENCODING 124
SWIDTH 265 0
DWIDTH 4 0
BBX 2 12 1 -1
BITMAP
C0
C0
C0
C0
C0
C0
C0
C0
C0
C0
C0
C0
ENDCHAR
STARTCHAR braceright
ENCODING 125
SWIDTH 386 0
DWIDTH 6 0
BBX 4 12 1 -1
BITMAP
E0
30
30
60
40
30
40
60
30
30
30
E0
ENDCHAR
STARTCHAR asciitilde
ENCODING 126
SWIDTH 687 0
DWIDTH 9 0
BBX 7 3 1 3
BITMAP
72
BA
9C
ENDCHAR
STARTCHAR space
ENCODING 160
SWIDTH 343 0
DWIDTH 4 0
BBX 1 1 0 0
BITMAP
00
ENDCHAR
STARTCHAR exclamdown
ENCODING 161
SWIDTH 265 0
DWIDTH 4 0
BBX 2 10 1 -2
BITMAP
C0
C0
00
40
C0
C0
C0
C0
C0
C0
ENDCHAR
STARTCHAR cent
ENCODING 162
SWIDTH 687 0
DWIDTH 10 0
BBX 7 12 1 -1
BITMAP
08
08
3E
6A
C8
C8
C8
C8
68
3E
08
08
ENDCHAR
STARTCHAR sterling
ENCODING 163
SWIDTH 687 0
DWIDTH 10 0
BBX 7 10 1 0
BITMAP
1C
32
30
30
FC
30
30
30
60
FE
ENDCHAR
STARTCHAR currency
ENCODING 164
SWIDTH 687 0
DWIDTH 10 0
BBX 9 10 0 0
BITMAP
8080
4100
3E00
6300
6300
6300
6300
3E00
4100
8080
ENDCHAR
STARTCHAR yen
ENCODING 165
SWIDTH 687 0
DWIDTH 10 0
BBX 8 10 1 0
BITMAP
C3
C3
62
66
34
7E
18
7E
18
18
ENDCHAR
STARTCHAR brokenbar
ENCODING 166
SWIDTH 265 0
DWIDTH 4 0
BBX 2 12 1 -1
BITMAP
C0
C0
C0
C0
C0
00
00
C0
C0
C0
C0
C0
ENDCHAR
STARTCHAR section
ENCODING 167
SWIDTH 693 0
DWIDTH 10 0
BBX 6 11 2 -1
BITMAP
78
CC
C0
70
D8
CC
6C
38
0C
CC
78
ENDCHAR
STARTCHAR dieresis
ENCODING 168
SWIDTH 675 0
DWIDTH 10 0
BBX 4 2 3 9
BITMAP
90
90
ENDCHAR
STARTCHAR copyright
ENCODING 169
SWIDTH 825 0
DWIDTH 12 0
BBX 10 10 1 0
BITMAP
1E00
6180
4080
8E40
9840
9840
8E40
4080
6180
1E00
ENDCHAR
STARTCHAR ordfeminine
ENCODING 170
SWIDTH 536 0
DWIDTH 8 0
BBX 6 6 1 4
BITMAP
70
18
78
D8
D8
6C
ENDCHAR
STARTCHAR guillemotleft
ENCODING 171
SWIDTH 614 0
DWIDTH 9 0
BBX 8 5 0 2
BITMAP
33
66
CC
66
33
ENDCHAR
STARTCHAR logicalnot
ENCODING 172
SWIDTH 687 0
DWIDTH 10 0
BBX 7 4 1 1
BITMAP
FE
02
02
02
ENDCHAR
STARTCHAR hyphen
ENCODING 173
SWIDTH 289 0
DWIDTH 5 0
BBX 3 1 1 4
BITMAP
E0
ENDCHAR
STARTCHAR registered
ENCODING 174
SWIDTH 687 0
DWIDTH 10 0
BBX 7 7 1 3
BITMAP
38
44
BA
B2
AA
44
38
ENDCHAR
STARTCHAR macron
ENCODING 175
SWIDTH 675 0
DWIDTH 10 0
BBX 4 1 3 9
BITMAP
F0
ENDCHAR
STARTCHAR degree
ENCODING 176
SWIDTH 241 0
DWIDTH 4 0
BBX 4 3 0 7
BITMAP
60
90
60
ENDCHAR
STARTCHAR plusminus
ENCODING 177
SWIDTH 687 0
DWIDTH 10 0
BBX 7 7 1 1
BITMAP
10
10
FE
10
10
00
FE
ENDCHAR
STARTCHAR twosuperior
ENCODING 178
SWIDTH 536 0
DWIDTH 7 0
BBX 5 6 1 4
BITMAP
F0
18
18
60
C0
F8
ENDCHAR
STARTCHAR threesuperior
ENCODING 179
SWIDTH 536 0
DWIDTH 7 0
BBX 5 6 1 4
BITMAP
F0
18
70
18
18
F0
ENDCHAR
STARTCHAR acute
ENCODING 180
SWIDTH 675 0
DWIDTH 10 0
BBX 5 2 3 9
BITMAP
38
E0
ENDCHAR
STARTCHAR mu
ENCODING 181
SWIDTH 699 0
DWIDTH 10 0
BBX 8 10 1 -2
BITMAP
C3
C3
C3
C3
C3
C3
E7
FB
C0
C0
ENDCHAR
STARTCHAR paragraph
ENCODING 182
SWIDTH 693 0
DWIDTH 10 0
BBX 6 11 2 -1
BITMAP
7C
F4
F4
F4
F4
74
14
14
14
14
14
ENDCHAR
STARTCHAR periodcentered
ENCODING 183
SWIDTH 343 0
DWIDTH 10 0
BBX 2 2 4 3
BITMAP
C0
C0
ENDCHAR
STARTCHAR cedilla
ENCODING 184
SWIDTH 675 0
DWIDTH 10 0
BBX 3 2 3 -2
BITMAP
20
C0
ENDCHAR
STARTCHAR onesuperior
ENCODING 185
SWIDTH 536 0
DWIDTH 7 0
BBX 4 6 1 4
BITMAP
30
F0
30
30
30
30
ENDCHAR
STARTCHAR ordmasculine
ENCODING 186
SWIDTH 536 0
DWIDTH 8 0
BBX 6 6 1 4
BITMAP
78
CC
CC
CC
CC
78
ENDCHAR
STARTCHAR guillemotright
ENCODING 187
SWIDTH 614 0
DWIDTH 9 0
BBX 8 5 1 2
BITMAP
CC
66
33
66
CC
ENDCHAR
STARTCHAR onequarter
ENCODING 188
SWIDTH 1066 0
DWIDTH 14 0
BBX 12 10 1 0
BITMAP
6100
E100
6200
6200
64E0
6560
0A60
0BF0
1060
1060
ENDCHAR
STARTCHAR onehalf
ENCODING 189
SWIDTH 1066 0
DWIDTH 14 0
BBX 12 10 1 0
BITMAP
6100
E100
6200
6200
64E0
6530
0870
08E0
1180
11F0
ENDCHAR
STARTCHAR threequarters
ENCODING 190
SWIDTH 1120 0
DWIDTH 15 0
BBX 13 10 1 0
BITMAP
7080
9880
3100
1A00
9A70
74B0
0530
09F8
1030
1030
ENDCHAR
STARTCHAR questiondown
ENCODING 191
SWIDTH 572 0
DWIDTH 8 0
BBX 6 10 1 -2
BITMAP
30
30
00
30
30
60
C0
C0
CC
78
ENDCHAR
STARTCHAR Agrave
ENCODING 192
SWIDTH 773 0
DWIDTH 11 0
BBX 9 13 1 0
BITMAP
7000
1C00
0000
1C00
1C00
2600
2600
6300
4300
FF00
C180
C180
C180
ENDCHAR
STARTCHAR Aacute
ENCODING 193
SWIDTH 773 0
DWIDTH 11 0
BBX 9 13 1 0
BITMAP
0700
1C00
0000
1C00
1C00
2600
2600
6300
4300
FF00
C180
C180
C180
ENDCHAR
STARTCHAR Acircumflex
ENCODING 194
SWIDTH 773 0
DWIDTH 11 0
BBX 9 13 1 0
BITMAP
1C00
2600
0000
1C00
1C00
2600
2600
6300
4300
FF00
C180
C180
C180
ENDCHAR
STARTCHAR Atilde
ENCODING 195
SWIDTH 773 0
DWIDTH 11 0
BBX 9 13 1 0
BITMAP
1A00
2C00
0000
1C00
1C00
2600
2600
6300
4300
FF00
C180
C180
C180
ENDCHAR
STARTCHAR Adieresis
ENCODING 196
SWIDTH 773 0
DWIDTH 10 0
BBX 8 13 1 0
BITMAP
24
24
00
18
18
2C
2C
66
46
FE
C3
C3
C3
ENDCHAR
STARTCHAR Aring
ENCODING 197
SWIDTH 773 0
DWIDTH 11 0
BBX 9 13 1 0
BITMAP
1C00
2600
1C00
1C00
1C00
2600
2600
6300
4300
FF00
C180
C180
C180
ENDCHAR
STARTCHAR AE
ENCODING 198
SWIDTH 997 0
DWIDTH 13 0
BBX 11 10 1 0
BITMAP
1FE0
1600
2600
2600
67C0
4600
7E00
C600
C600
C7E0
ENDCHAR
STARTCHAR Ccedilla
ENCODING 199
SWIDTH 726 0
DWIDTH 11 0
BBX 8 12 2 -2
BITMAP
3E
63
C0
C0
C0
C0
C0
C0
63
3E
08
30
ENDCHAR
STARTCHAR Egrave
ENCODING 200
SWIDTH 645 0
DWIDTH 9 0
BBX 6 13 2 0
BITMAP
70
1C
00
FC
C0
C0
C0
F8
C0
C0
C0
C0
FC
ENDCHAR
STARTCHAR Eacute
ENCODING 201
SWIDTH 645 0
DWIDTH 9 0
BBX 6 13 2 0
BITMAP
1C
70
00
FC
C0
C0
C0
F8
C0
C0
C0
C0
FC
ENDCHAR
STARTCHAR Ecircumflex
ENCODING 202
SWIDTH 645 0
DWIDTH 9 0
BBX 6 13 2 0
BITMAP
30
58
00
FC
C0
C0
C0
F8
C0
C0
C0
C0
FC
ENDCHAR
STARTCHAR Edieresis
ENCODING 203
SWIDTH 645 0
DWIDTH 9 0
BBX 6 13 2 0
BITMAP
48
48
00
FC
C0
C0
C0
F8
C0
C0
C0
C0
FC
ENDCHAR
STARTCHAR Igrave
ENCODING 204
SWIDTH 361 0
DWIDTH 6 0
BBX 4 13 1 0
BITMAP
E0
30
00
60
60
60
60
60
60
60
60
60
60
ENDCHAR
STARTCHAR Iacute
ENCODING 205
SWIDTH 361 0
DWIDTH 6 0
BBX 4 13 1 0
BITMAP
70
C0
00
60
60
60
60
60
60
60
60
60
60
ENDCHAR
STARTCHAR Icircumflex
ENCODING 206
SWIDTH 361 0
DWIDTH 6 0
BBX 4 13 1 0
BITMAP
60
B0
00
60
60
60
60
60
60
60
60
60
60
ENDCHAR
STARTCHAR Idieresis
ENCODING 207
SWIDTH 361 0
DWIDTH 6 0
BBX 4 13 1 0
BITMAP
90
90
00
60
60
60
60
60
60
60
60
60
60
ENDCHAR
STARTCHAR Eth
ENCODING 208
SWIDTH 819 0
DWIDTH 12 0
BBX 11 10 0 0
BITMAP
3F80
30C0
3060
3060
FC60
3060
3060
3060
30C0
3F80
ENDCHAR
STARTCHAR Ntilde
ENCODING 209
SWIDTH 783 0
DWIDTH 12 0
BBX 8 13 2 0
BITMAP
1A
2C
00
E1
E1
B1
B1
99
99
8D
8D
87
87
ENDCHAR
STARTCHAR Ograve
ENCODING 210
SWIDTH 855 0
DWIDTH 12 0
BBX 10 13 1 0
BITMAP
3800
0E00
0000
3F00
6180
C0C0
C0C0
C0C0
C0C0
C0C0
C0C0
6180
3F00
ENDCHAR
STARTCHAR Oacute
ENCODING 211
SWIDTH 855 0
DWIDTH 12 0
BBX 10 13 1 0
BITMAP
0700
1C00
0000
3F00
6180
C0C0
C0C0
C0C0
C0C0
C0C0
C0C0
6180
3F00
ENDCHAR
STARTCHAR Ocircumflex
ENCODING 212
SWIDTH 855 0
DWIDTH 12 0
BBX 10 13 1 0
BITMAP
0C00
1600
0000
3F00
6180
C0C0
C0C0
C0C0
C0C0
C0C0
C0C0
6180
3F00
ENDCHAR
STARTCHAR Otilde
ENCODING 213
SWIDTH 855 0
DWIDTH 12 0
BBX 10 13 1 0
BITMAP
0D00
1600
0000
3F00
6180
C0C0
C0C0
C0C0
C0C0
C0C0
C0C0
6180
3F00
ENDCHAR
STARTCHAR Odieresis
ENCODING 214
SWIDTH 855 0
DWIDTH 12 0
BBX 10 13 1 0
BITMAP
2100
2100
0000
3F00
6180
C0C0
C0C0
C0C0
C0C0
C0C0
C0C0
6180
3F00
ENDCHAR
STARTCHAR multiply
ENCODING 215
SWIDTH 687 0
DWIDTH 10 0
BBX 5 5 2 2
BITMAP
C8
70
20
70
98
ENDCHAR
STARTCHAR Oslash
ENCODING 216
SWIDTH 855 0
DWIDTH 12 0
BBX 10 12 1 -1
BITMAP
0040
3F40
6180
C2C0
C2C0
C4C0
C8C0
D0C0
D0C0
6180
BF00
8000
ENDCHAR
STARTCHAR Ugrave
ENCODING 217
SWIDTH 783 0
DWIDTH 12 0
BBX 8 13 2 0
BITMAP
70
1C
00
C3
C3
C3
C3
C3
C3
C3
C3
66
3C
ENDCHAR
STARTCHAR Uacute
ENCODING 218
SWIDTH 783 0
DWIDTH 12 0
BBX 8 13 2 0
BITMAP
0E
38
00
C3
C3
C3
C3
C3
C3
C3
C3
66
3C
ENDCHAR
STARTCHAR Ucircumflex
ENCODING 219
SWIDTH 783 0
DWIDTH 12 0
BBX 8 13 2 0
BITMAP
18
2C
00
C3
C3
C3
C3
C3
C3
C3
C3
66
3C
ENDCHAR
STARTCHAR Udieresis
ENCODING 220
SWIDTH 783 0
DWIDTH 12 0
BBX 8 13 2 0
BITMAP
24
24
00
C3
C3
C3
C3
C3
C3
C3
C3
64
3C
ENDCHAR
STARTCHAR Yacute
ENCODING 221
SWIDTH 738 0
DWIDTH 10 0
BBX 8 13 1 0
BITMAP
0E
38
00
C3
C3
62
66
34
18
18
18
18
18
ENDCHAR
STARTCHAR Thorn
ENCODING 222
SWIDTH 657 0
DWIDTH 9 0
BBX 6 10 2 0
BITMAP
C0
C0
F8
CC
CC
CC
CC
F8
C0
C0
ENDCHAR
STARTCHAR germandbls
ENCODING 223
SWIDTH 724 0
DWIDTH 10 0
BBX 8 11 1 0
BITMAP
7C
C6
C6
C4
CC
C6
C3
C3
C3
C3
CE
ENDCHAR
STARTCHAR agrave
ENCODING 224
SWIDTH 623 0
DWIDTH 9 0
BBX 8 11 1 0
BITMAP
70
1C
00
7C
06
06
7E
C6
C6
CE
77
ENDCHAR
STARTCHAR aacute
ENCODING 225
SWIDTH 623 0
DWIDTH 9 0
BBX 8 11 1 0
BITMAP
0E
38
00
7C
06
06
7E
C6
C6
CE
77
ENDCHAR
STARTCHAR acircumflex
ENCODING 226
SWIDTH 623 0
DWIDTH 9 0
BBX 8 11 1 0
BITMAP
18
2C
00
7C
06
06
7E
C6
C6
CE
77
ENDCHAR
STARTCHAR atilde
ENCODING 227
SWIDTH 623 0
DWIDTH 9 0
BBX 8 11 1 0
BITMAP
34
58
00
7C
06
06
7E
C6
C6
CE
77
ENDCHAR
STARTCHAR adieresis
ENCODING 228
SWIDTH 623 0
DWIDTH 9 0
BBX 8 11 1 0
BITMAP
24
24
00
7C
06
06
7E
C6
C6
CE
77
ENDCHAR
STARTCHAR aring
ENCODING 229
SWIDTH 623 0
DWIDTH 9 0
BBX 8 11 1 0
BITMAP
18
2C
18
7C
06
06
7E
C6
C6
CE
77
ENDCHAR
STARTCHAR ae
ENCODING 230
SWIDTH 913 0
DWIDTH 14 0
BBX 12 8 1 0
BITMAP
7DE0
0730
0630
7FF0
C600
C600
C710
79E0
ENDCHAR
STARTCHAR ccedilla
ENCODING 231
SWIDTH 545 0
DWIDTH 9 0
BBX 7 10 1 -2
BITMAP
3C
66
C0
C0
C0
C0
62
3C
10
60
ENDCHAR
STARTCHAR egrave
ENCODING 232
SWIDTH 614 0
DWIDTH 9 0
BBX 7 11 1 0
BITMAP
70
1C
00
3C
66
C6
FE
C0
C0
62
3C
ENDCHAR
STARTCHAR eacute
ENCODING 233
SWIDTH 614 0
DWIDTH 9 0
BBX 7 11 1 0
BITMAP
0E
38
00
3C
66
C6
FE
C0
C0
62
3C
ENDCHAR
STARTCHAR ecircumflex
ENCODING 234
SWIDTH 614 0
DWIDTH 9 0
BBX 7 11 1 0
BITMAP
18
2C
00
3C
66
C6
FE
C0
C0
62
3C
ENDCHAR
STARTCHAR edieresis
ENCODING 235
SWIDTH 614 0
DWIDTH 9 0
BBX 7 11 1 0
BITMAP
44
44
00
3C
66
C6
FE
C0
C0
62
3C
ENDCHAR
STARTCHAR igrave
ENCODING 236
SWIDTH 361 0
DWIDTH 4 0
BBX 4 11 0 0
BITMAP
E0
30
00
60
60
60
60
60
60
60
60
ENDCHAR
STARTCHAR iacute
ENCODING 237
SWIDTH 361 0
DWIDTH 4 0
BBX 4 11 0 0
BITMAP
70
C0
00
60
60
60
60
60
60
60
60
ENDCHAR
STARTCHAR icircumflex
ENCODING 238
SWIDTH 361 0
DWIDTH 4 0
BBX 4 11 0 0
BITMAP
60
B0
00
60
60
60
60
60
60
60
60
ENDCHAR
STARTCHAR idieresis
ENCODING 239
SWIDTH 361 0
DWIDTH 4 0
BBX 4 11 0 0
BITMAP
90
90
00
60
60
60
60
60
60
60
60
ENDCHAR
STARTCHAR eth
ENCODING 240
SWIDTH 675 0
DWIDTH 10 0
BBX 8 11 1 0
BITMAP
10
3E
0C
3E
66
C3
C3
C3
C3
66
3C
ENDCHAR
STARTCHAR ntilde
ENCODING 241
SWIDTH 693 0
DWIDTH 10 0
BBX 8 11 1 0
BITMAP
1A
2C
00
DE
E7
C3
C3
C3
C3
C3
C3
ENDCHAR
STARTCHAR ograve
ENCODING 242
SWIDTH 675 0
DWIDTH 10 0
BBX 8 11 1 0
BITMAP
70
1C
00
3C
66
C3
C3
C3
C3
66
3C
ENDCHAR
STARTCHAR oacute
ENCODING 243
SWIDTH 675 0
DWIDTH 10 0
BBX 8 11 1 0
BITMAP
0E
38
00
3C
66
C3
C3
C3
C3
66
3C
ENDCHAR
STARTCHAR ocircumflex
ENCODING 244
SWIDTH 675 0
DWIDTH 10 0
BBX 8 11 1 0
BITMAP
18
2C
00
3C
66
C3
C3
C3
C3
66
3C
ENDCHAR
STARTCHAR otilde
ENCODING 245
SWIDTH 675 0
DWIDTH 10 0
BBX 8 11 1 0
BITMAP
34
58
00
3C
66
C3
C3
C3
C3
66
3C
ENDCHAR
STARTCHAR odieresis
ENCODING 246
SWIDTH 675 0
DWIDTH 10 0
BBX 8 11 1 0
BITMAP
24
24
00
3C
66
C3
C3
C3
C3
66
3C
ENDCHAR
STARTCHAR divide
ENCODING 247
SWIDTH 687 0
DWIDTH 10 0
BBX 7 7 1 1
BITMAP
10
10
00
FE
00
10
10
ENDCHAR
STARTCHAR oslash
ENCODING 248
SWIDTH 675 0
DWIDTH 10 0
BBX 8 10 1 -1
BITMAP
01
3D
66
CB
CB
D3
D3
66
BC
80
ENDCHAR
STARTCHAR ugrave
ENCODING 249
SWIDTH 693 0
DWIDTH 10 0
BBX 8 11 1 0
BITMAP
70
1C
00
C3
C3
C3
C3
C3
C3
E7
7B
ENDCHAR
STARTCHAR uacute
ENCODING 250
SWIDTH 693 0
DWIDTH 10 0
BBX 8 11 1 0
BITMAP
1C
70
00
C3
C3
C3
C3
C3
C3
E7
7B
ENDCHAR
STARTCHAR ucircumflex
ENCODING 251
SWIDTH 693 0
DWIDTH 10 0
BBX 8 11 1 0
BITMAP
18
2C
00
C3
C3
C3
C3
C3
C3
E7
7B
ENDCHAR
STARTCHAR udieresis
ENCODING 252
SWIDTH 693 0
DWIDTH 10 0
BBX 8 11 1 0
BITMAP
24
24
00
C3
C3
C3
C3
C3
C3
E7
7B
ENDCHAR
STARTCHAR yacute
ENCODING 253
SWIDTH 645 0
DWIDTH 9 0
BBX 7 13 1 -2
BITMAP
1C
70
00
C6
C6
C6
C6
6C
68
38
30
60
E0
ENDCHAR
STARTCHAR thorn
ENCODING 254
SWIDTH 696 0
DWIDTH 10 0
BBX 8 12 1 -2
BITMAP
C0
C0
DC
E6
C3
C3
C3
C3
C6
FC
C0
C0
ENDCHAR
STARTCHAR ydieresis
ENCODING 255
SWIDTH 645 0
DWIDTH 9 0
BBX 7 13 1 -2
BITMAP
44
44
00
C6
C6
C6
C6
6C
68
38
30
60
E0
ENDCHAR
ENDFONT
